<svg xmlns="http://www.w3.org/2000/svg" xmlns:xlink="http://www.w3.org/1999/xlink" viewBox="0 0 3710 3710"><defs><style>.cls-1{fill:none;}.cls-2{isolation:isolate;}.cls-23,.cls-3{fill:#fff;}.cls-4{fill:#f4f7fa;}.cls-5{fill:url(#linear-gradient);}.cls-6{clip-path:url(#clip-path);}.cls-34,.cls-7{opacity:0.5;}.cls-23,.cls-7{mix-blend-mode:soft-light;}.cls-8{fill:#fcfdfe;}.cls-9{clip-path:url(#clip-path-2);}.cls-10{fill:url(#linear-gradient-2);}.cls-11{fill:#beb8f2;}.cls-12{fill:url(#linear-gradient-3);}.cls-13,.cls-34,.cls-52{fill:#d8dee8;}.cls-14{opacity:0.3;}.cls-14,.cls-34,.cls-52{mix-blend-mode:multiply;}.cls-15{fill:url(#linear-gradient-5);}.cls-16,.cls-26,.cls-44{opacity:0.74;}.cls-16{fill:url(#linear-gradient-6);}.cls-17{fill:#b19af3;}.cls-18{clip-path:url(#clip-path-3);}.cls-19{fill:#26264f;}.cls-20{fill:url(#linear-gradient-7);}.cls-21{fill:url(#linear-gradient-8);}.cls-22{fill:url(#linear-gradient-9);}.cls-23{opacity:0.35;}.cls-24{fill:url(#linear-gradient-10);}.cls-25{fill:url(#linear-gradient-12);}.cls-26{fill:url(#linear-gradient-13);}.cls-27{clip-path:url(#clip-path-4);}.cls-28{fill:url(#linear-gradient-14);}.cls-29{fill:url(#linear-gradient-15);}.cls-30{fill:url(#linear-gradient-16);}.cls-31{fill:url(#linear-gradient-17);}.cls-32{fill:url(#linear-gradient-18);}.cls-33{fill:url(#linear-gradient-19);}.cls-35{fill:url(#linear-gradient-20);}.cls-36{clip-path:url(#clip-path-5);}.cls-37{clip-path:url(#clip-path-6);}.cls-38{fill:url(#linear-gradient-21);}.cls-39{fill:url(#linear-gradient-22);}.cls-40{clip-path:url(#clip-path-7);}.cls-41{fill:url(#linear-gradient-23);}.cls-42{fill:url(#linear-gradient-24);}.cls-43{fill:url(#linear-gradient-25);}.cls-44{fill:url(#linear-gradient-26);}.cls-45{clip-path:url(#clip-path-8);}.cls-46{fill:url(#linear-gradient-27);}.cls-47{fill:url(#linear-gradient-28);}.cls-48{fill:url(#linear-gradient-29);}.cls-49{fill:url(#linear-gradient-30);}.cls-50{fill:url(#linear-gradient-31);}.cls-51{fill:url(#linear-gradient-32);}.cls-53{fill:url(#linear-gradient-33);}</style><linearGradient id="linear-gradient" x1="4355.76" y1="565.49" x2="4896.4" y2="1455.53" gradientTransform="matrix(0.97, 0.24, -0.24, 0.97, -3231.91, -714.33)" gradientUnits="userSpaceOnUse"><stop offset="0" stop-color="#ff9085"/><stop offset="1" stop-color="#fb6fbb"/></linearGradient><clipPath id="clip-path"><path class="cls-1" d="M985,1800.89l232,56.58c21.53-29.55,53.56-85.94,8.66-112.71-62.43-37.23-34.11-156.4-5-193.74,36-46.22,117.69-155.57,22.09-214.63-79.59-49.18-141-64.64-119-177.53s-21.23-197.69-123.89-216.54C891.85,922.49,840.38,759,741.37,784.4c-172.51,44.19-97,324.26,69.63,441.89s44,157.42,16,247.3c-38.17,122.7,136.73,138.54,168.83,198.62C1021,1719.31,1001.22,1770.56,985,1800.89Z"/></clipPath><clipPath id="clip-path-2"><path class="cls-1" d="M1361.57,2084.34l-255.93-19s-38.45-134.86,31.14-222.87c142-179.55-25.2-291.37-88.21-348.68-95-86.43-141.07-204,10.92-242.48s20-279.37-153.61-396.83C736,739.56,842.32,371.28,1232.81,586.3,1466,714.71,1409.24,967.85,1411,1102.5s199.87,160.46,119.66,318.85c-68.51,135.29-186.58,228.89-109.35,331.12S1499.24,1963,1361.57,2084.34Z"/></clipPath><linearGradient id="linear-gradient-2" x1="2711.34" y1="622.11" x2="2200.44" y2="2074.13" gradientTransform="matrix(-1, -0.07, -0.07, 1, 3769.02, 141.11)" gradientUnits="userSpaceOnUse"><stop offset="0" stop-color="#ffc444"/><stop offset="1" stop-color="#f36f56"/></linearGradient><linearGradient id="linear-gradient-3" x1="551.08" y1="1999.52" x2="1704.3" y2="1999.52" gradientUnits="userSpaceOnUse"><stop offset="0" stop-color="#444b8c"/><stop offset="1" stop-color="#26264f"/></linearGradient><linearGradient id="linear-gradient-5" x1="1643.05" y1="1159.77" x2="899.94" y2="2375.76" gradientUnits="userSpaceOnUse"><stop offset="0" stop-color="#fff"/><stop offset="1" stop-color="#ebeff2"/></linearGradient><linearGradient id="linear-gradient-6" x1="708.41" y1="2078.3" x2="1605.73" y2="2078.3" gradientUnits="userSpaceOnUse"><stop offset="0" stop-color="#aa80f9"/><stop offset="1" stop-color="#6165d7"/></linearGradient><clipPath id="clip-path-3"><path class="cls-1" d="M1473,1583.45c0,156.77-134.82,284.58-304.13,285.48-172.74.93-315.34-130.07-315.34-292.61s142.6-290.27,315.34-285.36C1338.13,1295.77,1473,1426.68,1473,1583.45Z"/></clipPath><linearGradient id="linear-gradient-7" x1="827.75" y1="1828.72" x2="1496.82" y2="1828.72" gradientTransform="matrix(1, 0, 0, 1, 0, 0)" xlink:href="#linear-gradient"/><linearGradient id="linear-gradient-8" x1="1164.76" y1="1815.96" x2="1141.14" y2="1454.38" gradientUnits="userSpaceOnUse"><stop offset="0" stop-color="#893976"/><stop offset="1" stop-color="#311944"/></linearGradient><linearGradient id="linear-gradient-9" x1="1206.47" y1="1488.06" x2="815.81" y2="1766.07" xlink:href="#linear-gradient-8"/><linearGradient id="linear-gradient-10" x1="2144.81" y1="1983.98" x2="3146.72" y2="1983.98" xlink:href="#linear-gradient-3"/><linearGradient id="linear-gradient-12" x1="2572.81" y1="2011.76" x2="3039.63" y2="1731.04" xlink:href="#linear-gradient-5"/><linearGradient id="linear-gradient-13" x1="2283.87" y1="2057.79" x2="3063.5" y2="2057.79" xlink:href="#linear-gradient-6"/><clipPath id="clip-path-4"><path class="cls-1" d="M2947.79,1596.37c0,146.31-117.37,265.54-264.59,266.33-150,.81-273.66-121.2-273.66-272.53s123.67-270.49,273.66-266.23C2830.42,1328.12,2947.79,1450.06,2947.79,1596.37Z"/></clipPath><linearGradient id="linear-gradient-14" x1="2387.24" y1="1825.94" x2="2968.58" y2="1825.94" gradientUnits="userSpaceOnUse"><stop offset="0" stop-color="#ab316d"/><stop offset="1" stop-color="#792d3d"/></linearGradient><linearGradient id="linear-gradient-15" x1="2674.26" y1="1617.12" x2="2675.35" y2="1828.46" gradientUnits="userSpaceOnUse"><stop offset="0" stop-color="#f36f56"/><stop offset="1" stop-color="#ffc444"/></linearGradient><linearGradient id="linear-gradient-16" x1="2705.18" y1="1327" x2="2652.07" y2="1654.99" xlink:href="#linear-gradient-15"/><linearGradient id="linear-gradient-17" x1="2677.13" y1="1394.33" x2="2651.32" y2="1553.73" xlink:href="#linear-gradient-3"/><linearGradient id="linear-gradient-18" x1="2789.95" y1="1343.87" x2="2737.34" y2="1668.82" xlink:href="#linear-gradient-15"/><linearGradient id="linear-gradient-19" x1="2625.74" y1="1310.15" x2="2572.02" y2="1641.9" xlink:href="#linear-gradient-15"/><linearGradient id="linear-gradient-20" x1="-1333.99" y1="1565.04" x2="-894.77" y2="2719.12" gradientTransform="matrix(-1, -0.07, -0.07, 1, 1659.39, 96.12)" xlink:href="#linear-gradient-6"/><clipPath id="clip-path-5"><path class="cls-1" d="M2589.72,2744.64l-141.63-36.48s-36.48-106.1,15.87-134.38,32.31-130.17,27.92-185.73c-11.91-150.77,151-137.07,151.2-332,.05-51.85-17.2-150.76,26.52-192.06,49.81-47.06,86.17-.9,118.2-40.25,50.06-61.5,131.28-83.56,179.7-20.27,47.79,62.47-10.28,186.82-154.62,286.76-95.44,83.43-96.93,108.41-89.42,169.23,5.27,42.61,45.9,153.59-11.92,197.91s-102,92.21-79.75,140.32C2665.69,2670.87,2589.72,2744.64,2589.72,2744.64Z"/></clipPath><clipPath id="clip-path-6"><path class="cls-1" d="M2401.82,2962.28l169,53s59-76.7,36.74-150.85c-45.37-151.29,90.3-180.46,145.29-201.18,82.94-31.25,142.4-94.95,54.71-158.29s58.28-184.25,199.49-215.41c138.19-30.49,163.73-293.73-141.42-255.2-182.24,23-210.24,199.8-245.6,285.72s-169,52-157.88,174c9.51,104.2,61.41,194.27-14.13,240.18S2344.42,2849.4,2401.82,2962.28Z"/></clipPath><linearGradient id="linear-gradient-21" x1="6193.68" y1="1344.18" x2="5841.16" y2="2346.08" gradientTransform="matrix(0.95, 0.3, -0.3, 0.95, -2498.87, -1062.55)" gradientUnits="userSpaceOnUse"><stop offset="0" stop-color="#e38ddd"/><stop offset="1" stop-color="#9571f6"/></linearGradient><linearGradient id="linear-gradient-22" x1="1737.16" y1="2283.96" x2="2110.18" y2="2898.06" gradientTransform="matrix(-1, 0.02, 0.02, 1, 4470.29, 119.34)" xlink:href="#linear-gradient-2"/><clipPath id="clip-path-7"><path class="cls-1" d="M2566.73,3053.74,2402,3057.48c-10.12-23.11-23.35-65.85,10.87-77.24,47.59-15.83,46.17-100.33,32.09-129.81-17.42-36.48-56.25-122.27,16.93-147.9,60.92-21.34,104.6-22.66,106.48-102S2612,2470.46,2683.94,2473c75.74,2.64,134.65-99.87,197.61-68.11,109.7,55.35,17.27,232.88-112.42,287.46s-53,99.56-47.44,164.27c7.53,88.34-112.67,73.09-143.21,108.82C2554.54,2993.43,2560.28,3030.89,2566.73,3053.74Z"/></clipPath><linearGradient id="linear-gradient-23" x1="1287.56" y1="1985.8" x2="2530.61" y2="1985.8" xlink:href="#linear-gradient-3"/><linearGradient id="linear-gradient-24" x1="2213.45" y1="863.38" x2="2297.09" y2="863.38" xlink:href="#linear-gradient-14"/><linearGradient id="linear-gradient-25" x1="2530.34" y1="984.69" x2="1645.04" y2="2433.35" xlink:href="#linear-gradient-5"/><linearGradient id="linear-gradient-26" x1="1463.37" y1="2084.04" x2="2430.69" y2="2084.04" xlink:href="#linear-gradient-6"/><clipPath id="clip-path-8"><path class="cls-1" d="M2286.74,1472.48c0,194.06-145.87,352.17-328.66,353.15-186,1-339.2-160.55-339.2-360.84s153.2-358.32,339.2-353C2140.87,1116.94,2286.74,1278.41,2286.74,1472.48Z"/></clipPath><linearGradient id="linear-gradient-27" x1="2356.54" y1="1035.09" x2="1597.81" y2="1943.49" xlink:href="#linear-gradient-14"/><linearGradient id="linear-gradient-28" x1="2004.61" y1="1485.93" x2="1928.41" y2="1837.32" xlink:href="#linear-gradient-6"/><linearGradient id="linear-gradient-29" x1="1947.99" y1="1500.65" x2="1949.45" y2="1783.95" xlink:href="#linear-gradient-15"/><linearGradient id="linear-gradient-30" x1="2240.93" y1="982.9" x2="1577.71" y2="1776.95" xlink:href="#linear-gradient-14"/><linearGradient id="linear-gradient-31" x1="1988.44" y1="1089.39" x2="1922.86" y2="1531.34" xlink:href="#linear-gradient-15"/><linearGradient id="linear-gradient-32" x1="2265.25" y1="1003.22" x2="1602.04" y2="1797.26" xlink:href="#linear-gradient-14"/><linearGradient id="linear-gradient-33" x1="2512.17" y1="762.07" x2="2192.35" y2="1328.9" gradientTransform="matrix(1, 0, 0, 1, 0, 0)" xlink:href="#linear-gradient"/></defs><g class="cls-2"><g id="Background"><rect class="cls-3" width="3710" height="3710"/></g><g id="Illustration"><path class="cls-4" d="M2947.62,2932.09c-74.86,77.16-141.84,122.52-193.13,156.76-500.15,334-1071.87,237.7-1248.64,204.8-285.19-53.08-525.92-90.52-732.76-277.39-470-424.62-447.13-1310.41-88-1859.12,42.58-65.07,401.17-596.61,974.14-671.5,14-1.84,24.47-2.88,33.63-3.85,88.63-9.38,637.89-58.91,1085.76,316.31,64.11,53.71,167.28,150.59,263,298.35C3391.4,1636.73,3392.51,2473.51,2947.62,2932.09Z"/><path class="cls-5" d="M1007.18,1733.56l2.42,1.84c47.81,36.19,106.45,67.3,178.85,88.13l43.2,9.2c20.38-30.93,34.23-64-6-88-62.43-37.23-34.11-156.4-5-193.74,36-46.22,117.69-155.57,22.09-214.63-79.59-49.18-141-64.64-119-177.53s-21.23-197.69-123.89-216.54C891.85,922.49,840.38,759,741.37,784.4c-172.51,44.19-97,324.26,69.63,441.89s44,157.42,16,247.3c-38.17,122.7,136.73,138.54,168.83,198.62C1006.73,1692.56,1009.18,1713.68,1007.18,1733.56Z"/><g class="cls-6"><g class="cls-7"><path class="cls-8" d="M1103.14,1791l5.17.23c17-378-149.63-762.35-434.74-1003.09l-3.34,4C954.14,1031.85,1120,1414.61,1103.14,1791Z"/><path class="cls-8" d="M1094.73,1584.16l5,1.25c35.87-144.31,187.36-226.1,188.89-226.9l-2.43-4.58C1284.67,1354.75,1131.16,1437.57,1094.73,1584.16Z"/><path class="cls-8" d="M1104.36,1721.41l5-1.29C1071.91,1574.1,810.61,1489.81,808,1489l-1.56,4.93C809,1494.74,1067.61,1578.16,1104.36,1721.41Z"/><path class="cls-8" d="M994,1227.23l5.1-.85c-19.73-118,90.49-264.53,91.6-266l-4.11-3.14C1085.5,958.74,973.94,1107.1,994,1227.23Z"/><path class="cls-8" d="M875.94,1018l3.7-3.62C784.18,917.08,600.17,912,598.31,911.93l-.11,5.17C600,917.14,782,922.22,875.94,1018Z"/></g></g><g class="cls-9"><path class="cls-10" d="M1361.57,2084.34l-255.93-19s-38.45-134.86,31.14-222.87c142-179.55-25.2-291.37-88.21-348.68-95-86.43-131.92-191.73-5.7-248.91,142.81-64.69,36.59-272.94-137-390.4C736,739.56,842.32,371.28,1232.81,586.3,1466,714.71,1409.24,967.85,1411,1102.5s199.87,160.46,119.66,318.85c-68.51,135.29-186.58,228.89-109.35,331.12S1499.24,1963,1361.57,2084.34Z"/><g class="cls-7"><path class="cls-11" d="M1249,2099.89l-5.24-1.37c.85-3.25,84.51-328.64,70.19-676.21C1300.79,1102.1,1199.31,697,790.78,585.45l1.43-5.23c181.86,49.65,319,160.59,407.72,329.74,70.85,135.12,111,307.46,119.48,512.24C1333.74,1770.56,1249.89,2096.63,1249,2099.89Z"/><path class="cls-11" d="M1233.94,982.24l-5.31-1.07c35.44-176.8-13.75-435.33-14.25-437.92l5.32-1C1220.2,544.82,1269.59,804.4,1233.94,982.24Z"/><path class="cls-11" d="M1171.76,871.16c-173.48-126.8-347.45-85-349.18-84.59l-1.33-5.25c1.76-.45,178.09-42.89,353.71,85.46Z"/><path class="cls-11" d="M1311,1650.05c-41.53-259.21-383.36-347.37-386.76-348l.55-5.38c3.4.25,349.66,91,391.56,352.48Z"/><path class="cls-11" d="M1320.64,1542.23l-5.21-1.49c46.14-161,231.9-260.43,233.78-261.42l2.52,4.8C1549.88,1285.09,1366.13,1383.44,1320.64,1542.23Z"/><path class="cls-11" d="M1255.84,2047c-.44-99.73-136.18-188.73-137.55-189.62l2.94-4.55c5.7,3.69,139.57,91.47,140,194.14Z"/><path class="cls-11" d="M1276.69,1970.24l-5.26-1.31c19-76.53,142.55-154.2,183.15-179.72,5.74-3.61,10.69-6.72,11.47-7.45l3.77,3.89c-1.08,1-4.36,3.12-12.35,8.15C1417.32,1819,1295.14,1895.82,1276.69,1970.24Z"/></g></g><path class="cls-12" d="M1664.86,1104.36,596,1061.06c-24.77-1-44.91,16.36-44.91,38.79V2900.26c0,22.43,20.14,39.28,44.91,37.66l1068.87-70.2c21.8-1.43,39.44-19.58,39.44-40.55V1143.92C1704.3,1123,1686.66,1105.25,1664.86,1104.36Z"/><path class="cls-12" d="M1651.14,1133.28,596,1061.06c-24.77-1-44.91,16.36-44.91,38.79V2900.26c0,22.43,20.14,39.28,44.91,37.66l1068.87-70.2c21.8-1.43,39.44-19.58,39.44-40.55V1143.92C1704.3,1123,1673,1134.16,1651.14,1133.28Z"/><path class="cls-13" d="M1686.59,1104.36l-1068.87-43.3c-24.77-1-44.9,16.36-44.9,38.79V2900.26c0,22.43,20.13,39.28,44.9,37.66l1068.87-70.2c21.8-1.43,39.44-19.58,39.44-40.55V1143.92C1726,1123,1708.39,1105.25,1686.59,1104.36Z"/><g class="cls-14"><path class="cls-13" d="M1251.47,2418.69c-18.14-204.05,117.74-288.83,66-473.43-64.08-228.52-311.46-238.7-396.06-463.94-32.47-86.43-45.3-217,47.59-406l-351.26-14.23c-24.77-1-44.9,16.36-44.9,38.79V2900.26c0,22.43,20.13,39.28,44.9,37.66l954.44-62.68C1331.47,2705.91,1262.61,2544.06,1251.47,2418.69Z"/></g><path class="cls-15" d="M1686.59,1126.78,617.72,1084.93c-10.15-.4-18.42,6.75-18.42,15.93V2898.58c0,9.19,8.27,16.13,18.42,15.47l1068.87-68.75c9-.57,16.22-8.05,16.22-16.66V1143C1702.81,1134.43,1695.54,1127.13,1686.59,1126.78Z"/><path class="cls-13" d="M1168.82,1915.17c-200.37,1.62-366.88-150.64-366.88-339.45s166.51-337.23,366.88-331c195.78,6.09,351.8,158.23,351.8,339.28S1364.6,1913.59,1168.82,1915.17Z"/><path class="cls-3" d="M1496.82,1583.72c0,169.07-145.29,307.11-328,308.33-186.71,1.26-341.07-140.23-341.07-316s154.36-313.73,341.07-308.18C1351.53,1273.27,1496.82,1414.65,1496.82,1583.72Z"/><path class="cls-16" d="M1568,2034.12,750.1,2046.69c-23,.35-41.69,17.65-41.69,38.63h0c0,21,18.69,37.61,41.69,37.16l817.91-16.1c20.85-.41,37.72-16.88,37.72-36.79h0C1605.73,2049.68,1588.86,2033.8,1568,2034.12Z"/><path class="cls-13" d="M1568,2176.38l-669.28,16c-22.62.54-41,17.84-41,38.64h0c0,20.8,18.37,37.15,41,36.51L1568,2248.63c20.85-.59,37.72-17.2,37.72-37.11h0C1605.73,2191.61,1588.86,2175.88,1568,2176.38Z"/><path class="cls-17" d="M750.48,2271.68l-.76,0c-22.79.64-41.31-15.09-41.31-35.15v-3.33c0-20.06,18.52-36.77,41.31-37.31l.76,0c22.74-.54,41.12,15.2,41.12,35.17v3.31C791.6,2254.34,773.22,2271,750.48,2271.68Z"/><path class="cls-13" d="M750.1,2278.8c-27.28.78-49.53-18.83-49.53-43.71s22.25-45.65,49.53-46.29,49.26,19,49.26,43.71S777.3,2278,750.1,2278.8Zm0-75.79c-18.65.45-33.86,14.66-33.86,31.67s15.21,30.42,33.86,29.91,33.73-14.73,33.73-31.67S768.72,2202.55,750.1,2203Z"/><path class="cls-13" d="M1568,2305.08l-669.28,21.13c-22.62.71-41,18.16-41,39h0c0,20.8,18.37,37,41,36.19l669.28-24c20.85-.75,37.72-17.49,37.72-37.4h0C1605.73,2320,1588.86,2304.42,1568,2305.08Z"/><path class="cls-17" d="M750.48,2406.68l-.76,0c-22.79.82-41.31-14.77-41.31-34.83v-3.33c0-20.06,18.52-36.91,41.31-37.63l.76,0c22.74-.72,41.12,14.89,41.12,34.85v3.31C791.6,2389,773.22,2405.86,750.48,2406.68Z"/><path class="cls-13" d="M750.1,2413.8c-27.28,1-49.53-18.45-49.53-43.33s22.25-45.82,49.53-46.67,49.26,18.59,49.26,43.33S777.3,2412.81,750.1,2413.8Zm0-75.79c-18.65.59-33.86,14.92-33.86,31.93s15.21,30.31,33.86,29.65,33.73-15,33.73-31.93S768.72,2337.41,750.1,2338Z"/><path class="cls-13" d="M1568,2433.79l-669.28,26.28c-22.62.88-41,18.47-41,39.27h0c0,20.8,18.37,36.86,41,35.87L1568,2506c20.85-.9,37.72-17.78,37.72-37.69h0C1605.73,2448.45,1588.86,2433,1568,2433.79Z"/><path class="cls-13" d="M750.1,2548.8c-27.28,1.2-49.53-18.07-49.53-43s22.25-46,49.53-47,49.26,18.21,49.26,43S777.3,2547.6,750.1,2548.8Zm0-75.79c-18.65.74-33.86,15.18-33.86,32.19s15.21,30.19,33.86,29.39,33.73-15.25,33.73-32.19S768.72,2472.27,750.1,2473Z"/><path class="cls-13" d="M1568,2562.5l-669.28,31.42c-22.62,1.06-41,18.79-41,39.59h0c0,20.8,18.37,36.72,41,35.56L1568,2634.75c20.85-1.07,37.72-18.07,37.72-38h0C1605.73,2576.86,1588.86,2561.52,1568,2562.5Z"/><path class="cls-17" d="M750.48,2676.67l-.76,0c-22.79,1.17-41.31-14.14-41.31-34.2v-3.33c0-20.06,18.52-37.19,41.31-38.26l.76,0c22.74-1.06,41.12,14.26,41.12,34.22v3.32C791.6,2658.38,773.22,2675.51,750.48,2676.67Z"/><path class="cls-13" d="M750.1,2683.8c-27.28,1.41-49.53-17.69-49.53-42.57s22.25-46.16,49.53-47.43,49.26,17.83,49.26,42.58S777.3,2682.39,750.1,2683.8Zm0-75.79c-18.65.88-33.86,15.44-33.86,32.45s15.21,30.08,33.86,29.13,33.73-15.51,33.73-32.45S768.72,2607.13,750.1,2608Z"/><g class="cls-18"><path class="cls-19" d="M1128.6,1363.06c-59.26-1.7-115.52,28.86-140.51,71.37-30.11,51.23,10.09,76.82-9.54,160.06-18.08,76.68-60.32,89.78-53.34,140.12,7.65,55.13,65.35,90.1,88.14,103.91,102.48,62.11,262.46,59.52,343.63-20.65,6.77-6.7,62.76-62,47.65-112.87-13.53-45.52-71.52-45.84-83.53-93.15-10.35-40.76,29.28-53.92,25.51-113-.74-11.55-4.23-66.26-48.34-91.55-29.38-16.84-61.68-12-73.51-9.66C1210.55,1387.08,1175.93,1364.42,1128.6,1363.06Z"/><path class="cls-20" d="M827.75,1790.84s299.7-162.46,669.07-.53c0,0-47,138.75-328,148.22C878.26,1948.32,827.75,1790.84,827.75,1790.84Z"/><path class="cls-21" d="M1115.79,1579.34l-11.22,77.56c-3.83,26.46-23.46,48.59-50.77,57.16l-91.32,28.65s174.72,78.17,395,0l-100.37-32.57c-28.51-10-47.94-35.09-49.18-63.62l-2.88-66.2Z"/><path class="cls-22" d="M1251.79,1512.48c0,65.44-42.39,135.42-95,135-52.9-.4-96-71.81-96-138s43.13-101.44,96-100.3C1209.4,1410.34,1251.79,1447,1251.79,1512.48Z"/><path class="cls-19" d="M1198.88,1452.45c-28.55.84-71.82,6.44-101.81,35.21-50.36,48.32-26.44,126.32-48.84,130.72-20,3.92-50.89-51.77-50.39-112.54.41-50.9,19.16-110.53,67.95-124.53,28.65-8.22,37.08,6.36,129.39,16.82,53.74,6.09,32.66,28.09,44.75,36.68,53.65,38.14,46.86,160.1,18,161.35C1244.22,1596.75,1225.29,1564.64,1198.88,1452.45Z"/></g><path class="cls-23" d="M1251.47,2418.69c-18.14-204.05,117.74-288.83,66-473.43-64.08-228.52-311.46-238.7-396.06-463.94-31.13-82.86-44.21-206.27,36.69-383.06l-340.36-13.33c-10.15-.4-18.42,6.75-18.42,15.93V2898.58c0,9.19,8.27,16.13,18.42,15.47l925.78-59.54C1325.89,2692.62,1262.15,2538.88,1251.47,2418.69Z"/><path class="cls-24" d="M3112.29,1148.71l-928.64-37.61c-21.42-.87-38.84,15.33-38.84,36.18V2821.6c0,20.85,17.42,36.62,38.84,35.21l928.64-61c19-1.25,34.43-18.14,34.43-37.72V1185.57C3146.72,1166,3131.32,1149.49,3112.29,1148.71Z"/><path class="cls-24" d="M3102.37,1206.73l-918.72-95.63c-21.42-.87-38.84,15.33-38.84,36.18V2821.6c0,20.85,17.42,36.62,38.84,35.21l928.64-61c19-1.25,34.43-18.14,34.43-37.72V1185.57C3146.72,1166,3121.4,1207.5,3102.37,1206.73Z"/><path class="cls-13" d="M3134,1148.71l-928.63-37.61c-21.43-.87-38.85,15.33-38.85,36.18V2821.6c0,20.85,17.42,36.62,38.85,35.21l928.63-61c19-1.25,34.43-18.14,34.43-37.72V1185.57C3168.45,1166,3153.05,1149.49,3134,1148.71Z"/><g class="cls-14"><path class="cls-13" d="M2755,2375.36c-15.77-190.29,102.42-269.17,57.38-441.41-55.72-213.13-270.62-222.56-344-432.29-28.15-80.44-39.27-202,41.28-378.24l-304.3-12.32c-21.43-.87-38.85,15.33-38.85,36.18V2821.6c0,20.85,17.42,36.62,38.85,35.21l828.84-54.43C2824.62,2643.46,2764.73,2492.3,2755,2375.36Z"/></g><path class="cls-25" d="M3134,1169.66l-928.63-36.37a15,15,0,0,0-15.94,14.87v1672c0,8.54,7.15,15,15.94,14.46L3134,2774.88c7.82-.5,14.16-7.45,14.16-15.5V1184.8A15.08,15.08,0,0,0,3134,1169.66Z"/><path class="cls-23" d="M2755,2375.36c-15.77-190.29,102.42-269.17,57.38-441.41-55.72-213.13-270.62-222.56-344-432.29-27-77.12-38.32-192,31.83-356.82l-294.85-11.55a15,15,0,0,0-15.94,14.87v1672c0,8.54,7.15,15,15.94,14.46l803.86-51.7C2819.77,2631,2764.33,2487.46,2755,2375.36Z"/><path class="cls-13" d="M2683.2,1905.81c-174,1.4-318.32-140.41-318.32-316.15a308.15,308.15,0,0,1,318.32-308.82c170.25,5.29,306.11,147,306.11,316S2853.45,1904.43,2683.2,1905.81Z"/><path class="cls-3" d="M2968.58,1596.61c0,157.8-126.5,286.58-285.38,287.64-162.11,1.09-296-130.68-296-294.34s133.85-292.34,296-287.52C2842.08,1307.11,2968.58,1438.8,2968.58,1596.61Z"/><path class="cls-26" d="M3030.62,2017.06,2320,2028c-19.92.3-36.1,16.37-36.1,35.89h0c0,19.52,16.18,35,36.1,34.64l710.65-14c18.17-.36,32.88-15.72,32.88-34.31h0C3063.5,2031.63,3048.79,2016.79,3030.62,2017.06Z"/><path class="cls-13" d="M3030.62,2149.88l-581.86,13.89c-19.6.47-35.53,16.55-35.53,35.91h0c0,19.37,15.93,34.62,35.53,34.06l581.86-16.4c18.17-.51,32.88-16,32.88-34.59h0C3063.5,2164.16,3048.79,2149.44,3030.62,2149.88Z"/><path class="cls-17" d="M2320.3,2237.36l-.66,0c-19.73.56-35.77-14.12-35.77-32.78v-3.1c0-18.67,16-34.18,35.77-34.65l.66,0c19.69-.47,35.62,14.22,35.62,32.8v3.09C2355.92,2221.3,2340,2236.81,2320.3,2237.36Z"/><path class="cls-13" d="M2320,2244c-23.62.67-42.89-17.61-42.89-40.77s19.27-42.44,42.89-43,42.67,17.74,42.67,40.77S2343.53,2243.31,2320,2244Zm0-70.53c-16.15.39-29.32,13.58-29.32,29.41s13.17,28.34,29.32,27.89,29.22-13.64,29.22-29.41S2336.1,2173.06,2320,2173.46Z"/><path class="cls-13" d="M3030.62,2270l-581.86,18.37c-19.6.62-35.53,16.82-35.53,36.19h0c0,19.36,15.93,34.49,35.53,33.79l581.86-20.89c18.17-.65,32.88-16.25,32.88-34.84h0C3063.5,2284.08,3048.79,2269.47,3030.62,2270Z"/><path class="cls-17" d="M2320.3,2363l-.66,0c-19.73.71-35.77-13.85-35.77-32.51v-3.1c0-18.66,16-34.3,35.77-34.92l.66,0c19.69-.63,35.62,13.94,35.62,32.52v3.08C2355.92,2346.65,2340,2362.29,2320.3,2363Z"/><path class="cls-13" d="M2320,2369.62c-23.62.86-42.89-17.28-42.89-40.43s19.27-42.59,42.89-43.33,42.67,17.41,42.67,40.44S2343.53,2368.76,2320,2369.62Zm0-70.53c-16.15.51-29.32,13.81-29.32,29.64s13.17,28.24,29.32,27.67,29.22-13.87,29.22-29.64S2336.1,2298.57,2320,2299.09Z"/><path class="cls-13" d="M3030.62,2390.21l-581.86,22.84c-19.6.77-35.53,17.1-35.53,36.46h0c0,19.37,15.93,34.37,35.53,33.52l581.86-25.36c18.17-.79,32.88-16.5,32.88-35.09h0C3063.5,2404,3048.79,2389.49,3030.62,2390.21Z"/><path class="cls-17" d="M2320.3,2488.63l-.66,0c-19.73.86-35.77-13.58-35.77-32.24v-3.1c0-18.66,16-34.42,35.77-35.2l.66,0c19.69-.78,35.62,13.66,35.62,32.24v3.09C2355.92,2472,2340,2487.77,2320.3,2488.63Z"/><path class="cls-13" d="M2320,2495.25c-23.62,1-42.89-16.95-42.89-40.1s19.27-42.73,42.89-43.65,42.67,17.08,42.67,40.11S2343.53,2494.22,2320,2495.25Zm0-70.53c-16.15.64-29.32,14-29.32,29.87s13.17,28.14,29.32,27.44,29.22-14.09,29.22-29.87S2336.1,2424.08,2320,2424.72Z"/><path class="cls-13" d="M3030.62,2510.37l-581.86,27.33c-19.6.92-35.53,17.36-35.53,36.73h0c0,19.36,15.93,34.25,35.53,33.24l581.86-29.84c18.17-.93,32.88-16.75,32.88-35.34h0C3063.5,2523.9,3048.79,2509.52,3030.62,2510.37Z"/><path class="cls-17" d="M2320.3,2614.26l-.66,0c-19.73,1-35.77-13.29-35.77-32v-3.1c0-18.66,16-34.54,35.77-35.47l.66,0c19.69-.93,35.62,13.39,35.62,32v3.09C2355.92,2597.37,2340,2613.25,2320.3,2614.26Z"/><path class="cls-13" d="M2320,2620.89c-23.62,1.22-42.89-16.62-42.89-39.77s19.27-42.89,42.89-44,42.67,16.75,42.67,39.78S2343.53,2619.67,2320,2620.89Zm0-70.53c-16.15.76-29.32,14.26-29.32,30.09s13.17,28,29.32,27.21,29.22-14.32,29.22-30.09S2336.1,2549.59,2320,2550.36Z"/><g class="cls-27"><path class="cls-28" d="M2387.24,1790.62s260-151.41,581.34-.48c0,0-40.92,129.48-285.38,138.16C2431,1937.25,2387.24,1790.62,2387.24,1790.62Z"/><path class="cls-29" d="M2637.13,1592.79l-9.74,72.29c-2.83,46-48.49,63.2-48.49,63.2,53.61,63.58,156.06,61.24,191.87,1.15-24.75-9.28-52.5-47.44-53.58-74l-2.5-61.72Z"/><path class="cls-30" d="M2755.32,1530.35c0,61-36.85,126.3-82.55,126-46-.35-83.41-66.87-83.41-128.53s37.45-94.57,83.41-93.58C2718.47,1435.17,2755.32,1469.33,2755.32,1530.35Z"/><path class="cls-31" d="M2586.89,1543.3l13.78-2c-2.11-5.08-10.81-27.56,0-46.93,10.38-18.59,34.82-27.28,53.47-25.69,21.18,1.81,33.89,11.79,44.52,4.45,6-4.13,7.9-11.79,8.59-17.77a57.15,57.15,0,0,0,4.29,15.86c7.9,18.16,21.26,22.16,28.54,34.19,4.9,8.11,8.09,21.58,0,45.1l12.1-.55a323,323,0,0,0,12.54-54.93c4.71-34.12,8-57.6-5.43-69.36-2.66-2.34-14.46-11.66-42.69-3.77a100,100,0,0,0-42-26.74c-7.42-2.36-44.25-14.1-76.92,8.64-22.22,15.47-39.64,44.89-34,69.65,3,13.09,11.06,19.1,18.18,44.44A169,169,0,0,1,2586.89,1543.3Z"/><path class="cls-32" d="M2743.85,1552.7s5.3-26.65,21.39-23.75-7,46.35-21.39,51.44Z"/><path class="cls-33" d="M2599.7,1550.67s-5.4-27.06-21.83-24.65,7.11,47.08,21.83,52.58Z"/></g><path class="cls-34" d="M2730.81,1135.81l-525.42-24.71c-21.43-.87-38.85,15.33-38.85,36.18V2821.6c0,20.85,17.42,36.62,38.85,35.21L2730.32,2820Z"/><path class="cls-35" d="M2631.79,2597.65c19.49,42.09.92,84.19-16.91,112.53-4.25,0-6.72,1.21-11,2.25-38.76,9.43-56.94,4.63-96.36,7.49-8.48.61-33.68-5.71-43.8-9l-18.78-6.47s-33.31-102.38,19-130.66,32.31-130.17,27.92-185.73c-11.91-150.77,151-137.07,151.2-332,.05-51.85-17.2-150.76,26.52-192.06,49.81-47.06,86.17-.9,118.2-40.25,50.06-61.5,131.28-83.56,179.7-20.27,47.79,62.47-10.28,186.82-154.62,286.76-95.44,83.43-96.93,108.41-89.42,169.23,5.27,42.61,45.9,153.59-11.92,197.91S2609.51,2549.54,2631.79,2597.65Z"/><g class="cls-36"><g class="cls-7"><path class="cls-8" d="M2528,2721.5l-2.88-.36c2.14-17.14,4.5-34.4,7-51.31,18.75-125.15,48.5-244,88.44-353.31,33.83-92.6,75.43-179.64,123.64-258.7,38.77-63.57,82-122.35,128.51-174.71a976.41,976.41,0,0,1,100.92-98.88c6-5,12.36-9.83,18.53-14.47,8.24-6.19,16.75-12.58,24.34-19.55l2,2.13c-7.7,7.07-16.26,13.51-24.55,19.74-6.15,4.62-12.51,9.4-18.42,14.37A972.61,972.61,0,0,0,2874.94,1885c-46.39,52.22-89.52,110.87-128.2,174.29-48.11,78.9-89.63,165.76-123.4,258.19-39.87,109.1-69.57,227.79-88.29,352.74C2532.52,2687.14,2530.16,2704.38,2528,2721.5Z"/><path class="cls-8" d="M2692.07,2157.93l-2.63-1.23c52.87-112.67,6.45-320.83,6-322.92l2.83-.64C2698.72,1835.24,2745.35,2044.36,2692.07,2157.93Z"/><path class="cls-8" d="M2571.82,2486.07l-2.75-.92c27-80.77,178.18-143.12,179.7-143.74l1.1,2.68C2748.36,2344.71,2598.36,2406.56,2571.82,2486.07Z"/><path class="cls-8" d="M2560.48,2533.22l-2.87-.42c8-55-10.48-134.3-52-223.27-2.09-4.47-2.09-4.47-2-5l2.88.38-1.44-.19,1.4-.36c.1.31.89,2,1.81,4C2550,2397.78,2568.56,2477.65,2560.48,2533.22Z"/><path class="cls-8" d="M2532.37,2690.27l-2.63-1.22c25.78-55.53,113.91-77.45,114.79-77.66l.69,2.81C2644.34,2614.42,2557.56,2636,2532.37,2690.27Z"/><path class="cls-8" d="M2523.64,2721.73c-10.92-48.15-36-94.73-76.76-142.42l2.21-1.88c41,48.05,66.35,95,77.38,143.66Z"/><path class="cls-8" d="M2848.06,1916.32l-2.56-1.37c32.89-61,53.29-132.72,60-156.28,1.62-5.71,2.2-7.71,2.52-8.38l2.61,1.27c-.24.51-1.17,3.77-2.35,7.9C2901.56,1783.1,2881.09,1855,2848.06,1916.32Z"/><path class="cls-8" d="M2779.92,2007.6l-2-2.07c46.31-45.58,176.27-44.12,181.78-44l0,2.9C2958.29,1964.37,2825.37,1962.86,2779.92,2007.6Z"/></g></g><g class="cls-37"><path class="cls-38" d="M2401.82,2962.28l169,53s59-76.7,36.74-150.85c-45.37-151.29,90.3-180.46,145.29-201.18,82.94-31.25,133.4-89.39,67-158.18-75.13-77.83,46-184.36,187.2-215.52,138.19-30.49,163.73-293.73-141.42-255.2-182.24,23-210.24,199.8-245.6,285.72s-169,52-157.88,174c9.51,104.2,61.41,194.27-14.13,240.18S2344.42,2849.4,2401.82,2962.28Z"/><g class="cls-7"><path class="cls-11" d="M2470,3000.89l3.71.45c.29-2.29,29.43-232.26,127.06-451.53,89.95-202,258.12-436,548.5-403.56l.42-3.72c-129.27-14.43-245.47,21.81-345.4,107.72-79.82,68.63-149.45,168.93-207,298.11C2499.51,2768.13,2470.32,2998.58,2470,3000.89Z"/><path class="cls-11" d="M2764.12,2288l3.68.67c22.26-122.41,119.6-275.7,120.58-277.23l-3.15-2C2884.24,2010.92,2786.51,2164.82,2764.12,2288Z"/><path class="cls-11" d="M2832.27,2232.53c143.52-37.17,244.46,33.89,245.46,34.61l2.19-3c-1-.73-103.3-72.83-248.59-35.19Z"/><path class="cls-11" d="M2544.78,2696.64c92.6-155.68,334.26-125.23,336.59-124.74l1-3.59c-2.24-.7-247.39-30.64-340.81,126.42Z"/><path class="cls-11" d="M2566,2625l3.72.37c11.39-115-82.46-226-83.41-227.15l-2.83,2.44C2484.44,2401.78,2577.25,2511.61,2566,2625Z"/><path class="cls-11" d="M2479.13,2965.26c25.66-63.85,135.36-86.39,136.46-86.61l-.73-3.66c-4.59.91-112.79,23.14-139.2,88.87Z"/><path class="cls-11" d="M2485.29,2910.71l3.71.5c7.3-53.92-52.18-135.17-71.73-161.87-2.76-3.78-5.15-7-5.46-7.7l-3.41,1.54c.43.94,2,3.11,5.85,8.37C2433.58,2778,2492.4,2858.28,2485.29,2910.71Z"/></g></g><path class="cls-39" d="M2561.75,3005.08l-1.9.88c-37.58,17.31-81.71,29.58-133.58,32.89l-30.48-.21c-9.15-23.87-13.58-48.2,17.06-58.4,47.59-15.83,46.17-100.33,32.09-129.81-17.42-36.48-56.25-122.27,16.93-147.9,60.92-21.34,104.6-22.66,106.48-102S2612,2470.46,2683.94,2473c75.74,2.64,134.65-99.87,197.61-68.11,109.7,55.35,17.27,232.88-112.42,287.46s-53,99.56-47.44,164.27c7.53,88.34-112.67,73.09-143.21,108.82C2568.14,2977.52,2563.35,2991.39,2561.75,3005.08Z"/><g class="cls-40"><g class="cls-7"><path class="cls-8" d="M2488.57,3029.58l-3.52-.6c44.6-257.23,213.82-491.55,441.63-611.52l1.66,3.16C2701.5,2540.09,2533,2773.43,2488.57,3029.58Z"/><path class="cls-8" d="M2524.9,2891.43l-3.57.1c-2.78-102.56-92.75-180.13-93.65-180.9l2.31-2.72C2430.91,2708.69,2522.08,2787.25,2524.9,2891.43Z"/><path class="cls-8" d="M2498.06,2982.49l-3.18-1.61c46.89-92.85,235.46-110.92,237.36-111.09l.32,3.56C2730.68,2873.52,2544.06,2891.41,2498.06,2982.49Z"/><path class="cls-8" d="M2645.65,2665.83l-3.31-1.33c30.78-76.56-21.77-191.66-22.3-192.82l3.24-1.5C2623.82,2471.35,2677,2587.86,2645.65,2665.83Z"/><path class="cls-8" d="M2756.25,2542.31l-1.95-3c78.74-51.38,203.49-27.56,204.75-27.31l-.69,3.51C2957.12,2515.27,2833.76,2491.73,2756.25,2542.31Z"/></g></g><path class="cls-41" d="M2476,929.1,1335.57,831.41c-26.49-1.07-48,20.41-48,48V3093.34c0,27.58,21.52,48.52,48,46.78l1152.17-75.67c23.7-1.55,42.87-23.89,42.87-49.89V926.9C2530.61,900.9,2499.65,930.06,2476,929.1Z"/><path class="cls-42" d="M2213.45,873.3h0c0-15.39,11.89-27.78,26.38-27.5l9.88-.51,47.38,18.9v17.27Z"/><path class="cls-13" d="M2518.49,878.08,1366.32,831.41c-26.49-1.07-48,20.41-48,48V3093.34c0,27.58,21.52,48.52,48,46.78l1152.17-75.67c23.7-1.55,42.87-23.89,42.87-49.89V926.9C2561.36,900.9,2542.19,879,2518.49,878.08Z"/><g class="cls-14"><path class="cls-13" d="M2047.25,2505.14c-19.57-252.26,127.21-356.58,71.26-585-69.2-282.52-335.78-295-426.71-572.59-34.87-106.43-48.64-267.27,51.14-500.88l-376.62-15.25c-26.49-1.07-48,20.41-48,48V3093.34c0,27.58,21.52,48.52,48,46.78l1027.94-67.51C2133.67,2860.79,2059.28,2660.16,2047.25,2505.14Z"/></g><path class="cls-43" d="M2518.49,905.88,1366.32,860.76c-10.86-.42-19.7,8.42-19.7,19.72V3091.55c0,11.29,8.84,19.91,19.7,19.22l1152.17-74.11c9.73-.63,17.63-9.83,17.63-20.5V925.94C2536.12,915.26,2528.22,906.26,2518.49,905.88Z"/><path class="cls-13" d="M1958.08,1882.74c-215.71,1.74-394.48-186-394.48-418.59s178.77-416.21,394.48-409.5c211.41,6.57,380.3,194.22,380.3,418.42S2169.49,1881,1958.08,1882.74Z"/><path class="cls-3" d="M2312.59,1472.77c0,209.34-157.24,380.09-354.51,381.41-201,1.35-366.8-173.12-366.8-389.71s165.78-387.25,366.8-381.27C2155.35,1089.07,2312.59,1263.44,2312.59,1472.77Z"/><path class="cls-44" d="M2389.77,2030.6,1508,2044.15c-24.65.38-44.66,21.62-44.66,47.44h0c0,25.82,20,46.36,44.66,45.88l881.74-17.36c22.62-.44,40.92-20.8,40.92-45.47h0C2430.69,2050,2412.39,2030.25,2389.77,2030.6Z"/><path class="cls-13" d="M2389.77,2206.82l-722.31,17.25c-24.28.58-44,21.83-44,47.46h0c0,25.63,19.73,45.85,44,45.17l722.31-20.37c22.62-.63,40.92-21.15,40.92-45.82h0C2430.69,2225.84,2412.39,2206.28,2389.77,2206.82Z"/><path class="cls-17" d="M1508.44,2321.18l-.82,0a43,43,0,0,1-44.25-43.45v-4.1c0-24.7,19.83-45.18,44.25-45.77l.82,0a43,43,0,0,1,44.07,43.47v4.09C1552.51,2300,1532.8,2320.49,1508.44,2321.18Z"/><path class="cls-13" d="M1508,2329.94c-29.22.84-53.06-23.4-53.06-54s23.84-56.1,53.06-56.79,52.8,23.56,52.8,54S1537.17,2329.11,1508,2329.94Zm0-93.32c-20,.49-36.28,17.92-36.28,38.86s16.29,37.52,36.28,37,36.15-18,36.15-38.85S1528,2236.14,1508,2236.62Z"/><path class="cls-13" d="M2389.77,2366.27l-722.31,22.8c-24.28.76-44,22.16-44,47.8h0c0,25.63,19.73,45.7,44,44.83l722.31-25.92c22.62-.82,40.92-21.47,40.92-46.14h0C2430.69,2385,2412.39,2365.55,2389.77,2366.27Z"/><path class="cls-17" d="M1508.44,2487.4l-.82,0c-24.42.88-44.25-18.42-44.25-43.11v-4.11c0-24.69,19.83-45.33,44.25-46.1l.82,0c24.36-.77,44.07,18.54,44.07,43.13v4.08C1552.51,2465.89,1532.8,2486.53,1508.44,2487.4Z"/><path class="cls-13" d="M1508,2496.17c-29.22,1.06-53.06-23-53.06-53.62s23.84-56.29,53.06-57.2,52.8,23.15,52.8,53.63S1537.17,2495.11,1508,2496.17Zm0-93.32c-20,.64-36.28,18.19-36.28,39.13s16.29,37.4,36.28,36.69,36.15-18.26,36.15-39.13S1528,2402.21,1508,2402.85Z"/><path class="cls-13" d="M2389.77,2525.71l-722.31,28.36c-24.28.95-44,22.5-44,48.13h0c0,25.64,19.73,45.56,44,44.5l722.31-31.48c22.62-1,40.92-21.79,40.92-46.45h0C2430.69,2544.1,2412.39,2524.82,2389.77,2525.71Z"/><path class="cls-13" d="M1508,2662.39c-29.22,1.29-53.06-22.58-53.06-53.21s23.84-56.47,53.06-57.6,52.8,22.74,52.8,53.22S1537.17,2661.11,1508,2662.39Zm0-93.32c-20,.8-36.28,18.48-36.28,39.42s16.29,37.27,36.28,36.41,36.15-18.54,36.15-39.41S1528,2568.28,1508,2569.07Z"/><path class="cls-13" d="M2389.77,2685.15l-722.31,33.91c-24.28,1.15-44,22.85-44,48.48h0c0,25.63,19.73,45.4,44,44.16l722.31-37c22.62-1.16,40.92-22.1,40.92-46.77h0C2430.69,2703.22,2412.39,2684.08,2389.77,2685.15Z"/><path class="cls-17" d="M1508.44,2819.85l-.82,0c-24.42,1.25-44.25-17.74-44.25-42.43v-4.11c0-24.69,19.83-45.63,44.25-46.78l.82,0c24.36-1.14,44.07,17.87,44.07,42.45v4.09C1552.51,2797.66,1532.8,2818.6,1508.44,2819.85Z"/><path class="cls-13" d="M1508,2828.62c-29.22,1.51-53.06-22.18-53.06-52.8s23.84-56.66,53.06-58,52.8,22.34,52.8,52.82S1537.17,2827.11,1508,2828.62Zm0-93.32c-20,.95-36.28,18.75-36.28,39.69s16.29,37.15,36.28,36.13,36.15-18.82,36.15-39.68S1528,2734.36,1508,2735.3Z"/><g class="cls-45"><path class="cls-46" d="M2022.05,1189.62c69.62,42.6,89.13,116.89,93.57,134.92,30.74,124.71-64,188-23.62,276.18,33.07,72.26,126.59,95.07,122.74,103-3.44,7.08-70.19-27.46-134.64-43.11-210.18-51-392.85,99.51-418.73,61.87-18.33-26.66,88.74-79.65,110.84-203.51,20.91-117.27-55.46-179.6-9.09-267.1,30.92-58.34,90.65-79.28,100.85-82.68C1943.07,1142.83,2011.35,1183.08,2022.05,1189.62Z"/><path class="cls-47" d="M1591.28,1729.13s322.22-200.56,721.31-.57c0,0-50.88,171.73-354.51,183C1645.48,1923.23,1591.28,1729.13,1591.28,1729.13Z"/><path class="cls-48" d="M1900.93,1468l-12.09,95.78c-4.12,32.67-25.26,60-54.66,70.59L1736,1669.79s188,96.47,425.83-.07l-108.43-40.22c-30.78-12.33-51.74-43.33-53.08-78.58l-3.11-81.78Z"/><path class="cls-49" d="M1913.62,1532.86c-49.41-14.11-75.89-57.15-91.58-82.68-26.32-42.78-62.63-131.32-28.45-181.64,1.92-2.83,4.14-4.21,8.09-9.18,23.24-29.18,20.55-53.07,29.58-68.38,21.79-36.93,110.45-21.43,115.84-20.44,94.73,17.46,135.81,104.24,136.63,106.17.74,1.76,1.48,3.57,1.48,3.57,5.74,14.08,38.64,94.72-2.64,170.27C2049.47,1511.12,1978.13,1551.29,1913.62,1532.86Z"/><path class="cls-50" d="M2047.6,1385.16c0,80.88-45.75,167.42-102.46,167-57-.43-103.45-88.52-103.45-170.19s46.44-125.33,103.45-124.11C2001.85,1259.07,2047.6,1304.29,2047.6,1385.16Z"/><path class="cls-51" d="M1838.26,1434.59c9.82-.44-4.36-85.43,33.71-108.51,25.27-15.33,69.14-.6,93.82,27.39,38.9,44.14,17.13,106.71,46.6,120.42,18.71,8.7,43.69-9.05,55.65-22.1,37.38-40.77,32.28-128-11.9-177.79-35.21-39.67-83-41.8-94.36-41.93-65-.77-124.71,49.87-138.39,110.37C1812.87,1388.93,1831,1434.91,1838.26,1434.59Z"/></g><path class="cls-23" d="M2047.25,2505.14c-19.57-252.26,127.21-356.58,71.26-585-69.2-282.52-335.78-295-426.71-572.59-33.43-102-47.47-254.1,39.42-472.49l-364.9-14.29c-10.86-.42-19.7,8.42-19.7,19.72V3091.55c0,11.29,8.84,19.91,19.7,19.22l996.86-64.12C2127.64,2844.3,2058.79,2653.74,2047.25,2505.14Z"/><path class="cls-52" d="M2468.38,1187.4l-105.47-83.61-106.55,78.51V918.48a70.19,70.19,0,0,0-25.13-53.61l-.82-.68,201.09,7.89c20.39.8,36.88,18.53,36.88,39.59Z"/><path class="cls-53" d="M2487.68,1187.4l-105.47-88.5L2275.66,1182V902.75c0-21.77-9.27-42.7-25.13-56.74l-.82-.72,201.09,8.35c20.39.85,36.88,19.61,36.88,41.91Z"/></g></g></svg>